<svg width="24" height="24" viewBox="0 0 24 24" fill="none" xmlns="http://www.w3.org/2000/svg">
<g clip-path="url(#clip0_14790_1130)">
<path d="M13 18H11V10H13V18Z" fill="#0F0E0E"/>
<path d="M12 6C12.35 6 12.646 6.12064 12.8877 6.3623C13.1294 6.60397 13.25 6.9 13.25 7.25C13.25 7.6 13.1294 7.89603 12.8877 8.1377C12.646 8.37936 12.35 8.5 12 8.5C11.65 8.5 11.354 8.37936 11.1123 8.1377C10.8706 7.89603 10.75 7.6 10.75 7.25C10.75 6.9 10.8706 6.60397 11.1123 6.3623C11.354 6.12064 11.65 6 12 6Z" fill="#0F0E0E"/>
<path fill-rule="evenodd" clip-rule="evenodd" d="M12 0C18.6274 0 24 5.37258 24 12C24 18.6274 18.6274 24 12 24C5.37258 24 0 18.6274 0 12C0 5.37258 5.37258 0 12 0ZM12 2C6.47715 2 2 6.47715 2 12C2 17.5228 6.47715 22 12 22C17.5228 22 22 17.5228 22 12C22 6.47715 17.5228 2 12 2Z" fill="#0F0E0E"/>
</g>
<defs>
<clipPath id="clip0_14790_1130">
<rect width="24" height="24" fill="white"/>
</clipPath>
</defs>
</svg>
